<?xml version="1.0" encoding="UTF-8" standalone="no"?>
<svg
   width="2457.8"
   height="2426.5"
   version="1.0"
   viewBox="0 0 2457.8 2426.5"
   id="svg14"
   xmlns="http://www.w3.org/2000/svg">
  <g fill="none" fill-rule="evenodd">
  <path
          fill="#2f5b8b"
     d="m 1272.7,4.7 c -0.3,2.7 -1.3,13.3 -2.1,23.8 -4.3,53.1 -10.1,122.2 -11.1,132.2 l -0.7,6.1 6.4,0.6 c 3.5,0.3 10.3,0.8 15,1.1 l 8.6,0.5 0.6,-6.8 c 2.3,-25.5 8.7,-101.1 8.7,-103 0,-3.1 1.8,-2.8 3.2,0.5 6,14.9 51.6,112.5 53.2,114.1 1.2,1.2 31.2,3.9 32.2,2.9 0.7,-0.7 2.6,-21.6 12.4,-137.1 2.6,-31.3 2.7,-29.1 -1.2,-29.4 -1.8,-0.1 -8.5,-0.6 -14.8,-1.1 -6.3,-0.5 -11.6,-0.8 -11.7,-0.7 -0.1,0 -1.1,11.8 -2.2,26.1 -4.2,52.1 -5.9,70.6 -6.5,71.2 -0.3,0.3 -1,-0.5 -1.5,-1.8 -3.4,-8.6 -9,-21 -25.5,-56.2 -10.2,-21.9 -18.6,-40.3 -18.6,-40.8 0,-0.5 -0.5,-0.9 -1.1,-0.9 -0.5,0 -0.7,-0.4 -0.4,-1 0.3,-0.5 -0.4,-1.2 -1.7,-1.5 C 1312,3.1 1277.1,0 1274.1,0 c -0.4,0 -1.1,2.1 -1.4,4.7 z m -146.1,0.9 c -34.1,2.8 -52,4.6 -52.7,5.3 -0.4,0.4 -0.1,7.6 0.7,16.1 0.8,8.5 2.3,27 3.5,41 6.1,78.5 8.7,108 9.3,108.6 0.5,0.5 36.9,-2.6 37.6,-3.2 0.4,-0.3 -1.8,-29.5 -3.9,-53.4 -0.5,-5.7 -0.6,-10.8 -0.2,-11.1 0.4,-0.4 6.9,-1.3 14.4,-2.1 l 13.7,-1.3 2.7,6 c 1.5,3.3 8.4,17.8 15.5,32.2 l 12.7,26.3 4.4,-0.6 c 2.4,-0.2 11.6,-1.1 20.6,-1.9 9,-0.7 16.6,-1.6 16.9,-1.9 0.3,-0.2 -7.4,-16 -17.1,-35 -9.7,-18.9 -17.6,-34.9 -17.6,-35.5 0,-0.6 1.7,-1.9 3.8,-3 5,-2.6 12.4,-10.6 15.7,-17.1 14.1,-27.8 -2.9,-64.4 -32.5,-70 -6.9,-1.3 -27.5,-1.1 -47.5,0.6 z m 34,31 c 9.3,4.8 13,16.7 8.5,27.1 -2.7,6.3 -5.2,8.8 -11,10.8 -4.4,1.6 -39,5.8 -39.9,4.9 -0.6,-0.6 -3.2,-37.2 -2.9,-40.4 0.3,-2.4 0.6,-2.5 11.8,-3.6 17.3,-1.8 28.6,-1.4 33.5,1.2 z m -161,-14 c -5.5,1.3 -21.5,5.2 -35.5,8.5 -41,9.8 -65.4,16 -66.3,16.9 -0.8,0.7 2.5,15.1 21.3,93.5 3.2,13.2 8.2,34 11.1,46.2 3.2,13.6 5.8,22.3 6.5,22.3 1.2,0 12,-2.5 63.4,-14.9 15.7,-3.8 33.7,-8.1 40.1,-9.6 l 11.5,-2.7 -3.3,-15.1 c -1.8,-8.4 -3.4,-15.5 -3.6,-15.8 -0.2,-0.7 -55.9,12.1 -70.1,16 -4.3,1.2 -8.1,1.9 -8.5,1.6 -0.3,-0.4 -1.1,-3 -1.7,-5.8 -0.6,-2.9 -2.3,-10.7 -3.9,-17.4 -1.6,-6.8 -2.7,-12.5 -2.4,-12.7 0.3,-0.3 4.5,-1.4 9.4,-2.5 5,-1.1 17.6,-4.1 28,-6.6 10.5,-2.5 20,-4.7 21.2,-5 l 2.1,-0.5 -1.8,-8.2 c -1,-4.6 -2.6,-11.5 -3.5,-15.4 l -1.6,-7.2 -5.7,1.4 c -3.1,0.7 -16.9,4.1 -30.6,7.4 -13.7,3.3 -25.1,5.9 -25.3,5.6 -1,-1 -8.1,-32.1 -7.5,-32.7 0.4,-0.3 9.7,-2.7 20.7,-5.2 29.3,-6.7 55.9,-13.1 56.4,-13.4 0.8,-0.5 -6.3,-29.8 -7.3,-30.5 -1.5,-1 -1.7,-1 -13.1,1.8 z m 586,36.2 c -19,4.9 -32.1,18.3 -37.1,38.2 -2.3,9.1 -1.6,20.8 1.8,28 5.5,11.9 14.8,20.4 37.7,34.5 15.8,9.7 19.3,12.4 22,17.7 2.1,3.8 2.2,4.8 1.2,8.6 -2.5,9.1 -11.8,14.3 -22.2,12.4 -7.6,-1.5 -16.1,-4.8 -21.6,-8.6 -5.6,-3.8 -10.9,-11.9 -11.8,-17.9 -1.5,-10.3 0.1,-9.2 -14.8,-10.5 -7.3,-0.7 -15.3,-1.2 -17.9,-1.2 h -4.8 v 6.3 c 0,14.7 5.8,27.7 17.4,39.2 14.4,14.2 34.7,22.3 58.2,23.2 18.8,0.8 28,-1.7 39.1,-10.3 23.5,-18.3 26.8,-50.4 7.3,-71.7 -6.6,-7.2 -12.9,-12 -29,-21.7 -15.1,-9.1 -21.5,-14.7 -23.2,-20.2 -0.9,-3.1 -0.8,-4.2 1.1,-8 3.2,-6.5 6.3,-8.3 14.1,-8.3 17.3,0 33,13.1 33,27.4 0,1.9 0.7,2 17.6,2.3 l 17.6,0.3 -0.7,-5.5 c -0.8,-7.3 -3.1,-15.3 -6,-21 -11.7,-23 -52.2,-40 -79,-33.2 z M 825.6,70 c -1.1,0.5 -6.5,2.8 -12,5 -16.4,6.8 -19.5,8.3 -19.5,9.5 0,0.6 5.4,14.1 12.1,30 6.6,15.8 11.6,29.1 11.2,29.5 -0.4,0.4 -8.2,3.8 -17.3,7.5 -9.1,3.7 -19.3,8.1 -22.8,9.7 -3.5,1.7 -6.5,2.8 -6.7,2.6 -0.6,-0.6 -24.5,-58.9 -24.5,-59.8 0,-0.5 -2.1,0 -4.7,0.9 -8.9,3.3 -25.8,10.4 -26.8,11.3 -0.5,0.4 -1.8,0.8 -2.8,0.8 -2.8,0 -2.1,2.5 7.6,26 30,72.3 47.4,114.5 50.1,121.2 1.7,4.3 3.7,7.8 4.4,7.8 1.1,0 33.6,-12.6 35,-13.5 0.2,-0.2 -2.8,-7.7 -16.5,-41.5 -4.1,-10.2 -7.9,-19.5 -8.4,-20.8 -0.8,-2 -0.5,-2.5 2.4,-3.6 1.7,-0.7 12.3,-5.1 23.5,-9.6 11.6,-4.8 20.7,-7.9 21.1,-7.4 0.5,0.5 4.3,9.2 8.4,19.4 12.6,30.7 17.3,42 17.9,42.5 0.2,0.3 3.1,-0.6 6.4,-1.9 12.1,-4.9 28.9,-11.8 29.1,-12 0.3,-0.3 -11,-28.4 -35.9,-88.6 -11.3,-27.2 -22,-53.2 -23.8,-57.8 -3.4,-8.3 -3.9,-8.8 -7.5,-7.2 z m 892.7,119.8 c -34.3,33.9 -62.3,62 -62.2,62.4 0,0.3 6.6,4.1 14.8,8.3 l 14.7,7.7 12.1,-12.6 c 6.7,-6.9 12.7,-12.6 13.4,-12.6 0.7,0 5.4,2.2 10.4,4.9 5,2.7 15,7.9 22.1,11.6 7.2,3.7 13.6,7.3 14.3,8 1.1,1 0.7,4.1 -2.3,18 -2,9.2 -3.3,17.1 -2.8,17.5 0.4,0.4 8.8,4.9 18.6,9.9 12.4,6.5 17.8,8.8 18.2,7.9 0.4,-1.2 6.9,-36.9 24.5,-134.8 3.3,-18.5 6,-34.3 6,-35.2 0,-1.1 -5,-4.3 -14.7,-9.4 -8.2,-4.2 -17,-9 -19.8,-10.5 l -5,-2.8 z m 57.8,-10.6 c -0.5,1.8 -3,14.8 -5.5,28.8 -2.5,14 -4.8,26.1 -5,26.8 -0.3,0.8 -5.3,-1.3 -15.2,-6.4 -8.2,-4.3 -15.2,-8.1 -15.7,-8.5 -0.6,-0.6 6.4,-8.3 17.1,-19.1 10,-10.1 19.3,-19.8 20.8,-21.6 1.5,-1.7 3.1,-3.2 3.5,-3.2 0.5,0 0.4,1.5 0,3.2 z m -1144,-19.4 c -51.4,31 -60.8,36.7 -70,42.5 -5.2,3.3 -9.7,6.1 -9.8,6.3 -0.5,0.4 16.2,27.3 17,27.3 0.8,0.1 15.4,-8.4 27.1,-15.7 4.8,-3 9,-5.3 9.2,-5 0.3,0.3 10.1,16.4 21.8,35.9 42.3,70.1 47.1,77.9 48,77.9 1.5,0 32.8,-19.1 32.5,-19.8 -0.6,-1.3 -12.3,-20.9 -26.3,-44.2 -36.6,-60.5 -41.5,-68.9 -41.4,-70.1 0,-0.8 7.6,-5.9 17,-11.4 9.3,-5.4 16.9,-10.4 16.9,-10.9 0,-0.5 -2.4,-5 -5.4,-10 -2.9,-5 -6.4,-11 -7.7,-13.3 -1.3,-2.4 -2.8,-4.3 -3.4,-4.3 -0.5,0 -12,6.7 -25.5,14.8 z m 560.5,44.8 C 1079.1,209.5 966,233.5 860.1,275.3 811.7,294.4 761.2,319.2 716.6,345.8 584.7,424.4 473.1,530.2 388.4,657.1 284.8,812 226.1,991.6 218.1,1178 c -9,207.8 43.5,408.5 152.7,583.8 125.5,201.5 317.2,352.9 542.3,428.2 79.3,26.6 159.9,42.8 247.5,49.7 31.2,2.5 120.7,2.5 151,0 154.8,-12.8 288.5,-53 422.5,-127 19.1,-10.5 51.6,-30.7 73.4,-45.5 143.5,-97.5 260.1,-230.1 338.4,-384.3 84.5,-166.7 121.1,-355.2 105.6,-544.4 -11.7,-144 -54.6,-285.5 -124.7,-411 -133.2,-238.6 -356.3,-414.1 -619.3,-487 -63.8,-17.7 -129.6,-28.9 -199.4,-34 -20.1,-1.5 -96,-2.7 -115.5,-1.9 z m 112,17.8 c 67.1,5.2 134.6,16.6 191.5,32.2 5.2,1.4 10.4,2.8 11.5,3.1 15.5,4 57,17.6 81.9,27 127.2,47.8 247.4,124.3 343.1,218.3 44.4,43.6 70,72.3 102.4,115 151.8,199.9 222.6,447.2 199.5,697.5 -16.9,184.7 -85.2,360.9 -197.7,510.4 -78.3,104 -183.8,198.1 -293.2,261.6 -29.1,16.8 -38.7,22 -61.5,33.4 -21.4,10.6 -32.1,15.6 -51,23.8 -11.5,5 -17.6,7.5 -44,17.8 -11.9,4.7 -52.6,18.3 -68.5,22.9 -149.1,43.3 -302.6,51.9 -455.5,25.5 C 917.4,2185.8 776.7,2126.8 654.6,2039.7 576.3,1983.8 503.9,1914.2 443.8,1837 387,1764 338.6,1679.6 304.4,1593.5 c -71.5,-179.6 -89.6,-377.4 -51.8,-566 3.3,-16.5 4.8,-23.1 9.2,-41.5 3.9,-16.6 14.1,-52.3 20,-70.5 C 320.9,795.6 378.9,689 459,590.1 c 23.7,-29.4 55.3,-63.5 84.6,-91.5 115.5,-110.1 252.4,-190.2 403,-235.7 77.2,-23.3 163.1,-38.1 244,-41.9 26,-1.2 90.9,-0.4 114,1.4 z"
     id="path2" />
  <path
          fill="#2f5b8b"
     d="m 1010.9,516.7 -4.8,0.4 V 610 h 19 v -17.8 c 0,-9.7 0.4,-18.2 0.8,-18.8 0.4,-0.7 4.3,-1.1 10.2,-1 l 9.5,0.1 0.1,-7.9 v -7.9 l -9.7,0.7 c -8.4,0.6 -9.7,0.5 -10.3,-0.9 -0.9,-2.4 -0.7,-20.8 0.2,-22.2 0.5,-0.8 4.8,-1.3 13.2,-1.5 l 12.5,-0.3 0.3,-7.8 0.3,-7.7 h -15.4 c -8.5,0 -16.7,-0.2 -18.3,-0.4 -1.6,-0.1 -5,-0.1 -7.6,0.1 z m 340.5,0.1 -8.3,0.3 V 610 h 17 l 0.2,-27.3 0.3,-27.2 10.4,-0.6 0.7,3.7 c 0.4,2 0.3,14.1 0,26.9 l -0.8,23.2 2.4,0.6 c 1.3,0.4 5.4,0.7 9.1,0.7 h 6.8 l -0.3,-31.4 c -0.3,-29.7 -0.4,-31.5 -2.3,-33.6 -6,-6.7 -17.4,-6.8 -23.5,-0.2 l -2.5,2.7 -1,-31 z m 48.1,8.4 0.1,9.3 8.8,0.3 8.7,0.3 V 516 h -17.7 z m -289.8,37.1 c 0,25 0.4,45.9 0.8,46.5 0.4,0.8 3.7,1.2 8.7,1.2 h 7.9 v -93 h -17.5 z m 28.4,0.6 v 45.8 l 5.3,0.6 c 2.8,0.3 6.6,0.5 8.4,0.4 l 3.1,-0.2 0.6,-46.3 0.6,-46.2 h -18 z m -68.8,-21.2 c -4.4,2.2 -9.7,8.5 -11.8,14.2 -1.1,3.1 -1.8,9 -2.1,17.8 -0.7,17 1.4,25.1 8.1,31.7 4.3,4.4 7.7,5.6 15.6,5.6 11.5,0 20.8,-8.4 22.3,-20.1 0.4,-3.4 0.3,-3.5 -3,-3.7 -1.8,-0.2 -4.3,-0.6 -5.6,-1.1 -3.7,-1.3 -5.4,-0.3 -6.1,3.7 -0.6,4.3 -3.8,8.2 -6.5,8.2 -4.8,0 -7.9,-6.2 -8.1,-15.8 V 579 h 30 v -7.5 c 0,-20.5 -8.2,-31.5 -23.5,-31.5 -3.5,0 -7.4,0.7 -9.3,1.7 z m 13.8,11.8 c 0.6,0.8 1.8,3.4 2.5,5.9 2,6.4 0.7,7.8 -7,7.4 l -6,-0.3 0.2,-3.7 c 0.1,-2 0.9,-5.3 1.7,-7.2 1.2,-3 2,-3.6 4.4,-3.6 1.6,0 3.5,0.7 4.2,1.5 z m 97,-12.4 c -11.2,4.5 -17,18.9 -15.7,39.3 0.9,15.9 7.1,27.3 16.1,29.7 6.4,1.7 15.9,0.6 20.5,-2.4 4.8,-3.2 9.5,-12.3 11.1,-21.4 1.4,-8.2 -0.2,-25.7 -3,-32.1 -2.7,-6.1 -8.5,-12 -13,-13.2 -4.4,-1.2 -12.7,-1.2 -16,0.1 z m 12.7,13.9 c 1.6,3.2 1.8,35.6 0.2,39.7 -2,5.4 -7.1,6.1 -8.8,1.2 -1.4,-4.2 -1.5,-39.3 0,-42 1.5,-2.9 6.9,-2.2 8.6,1.1 z m 111.3,-13.9 c -4.6,1.8 -9.2,6.1 -11.1,10.3 -2.3,5 -2.5,14.6 -0.5,18.5 2.1,4 7.7,8.6 14.9,12.2 9.1,4.6 11.7,6.7 11.7,9.4 0,2.9 -4.3,6.5 -7.7,6.5 -2.4,0 -6.7,-3.6 -8.9,-7.5 -1,-1.9 -1.5,-1.9 -6,-0.7 -2.7,0.7 -5.3,1.7 -5.8,2.2 -1.6,1.5 1.3,8.8 5,12.9 4.4,5 10,6.6 19.7,5.8 8.6,-0.7 13.9,-3.9 17.7,-10.7 3.5,-6.5 3.4,-15.9 -0.3,-21.6 -3.1,-5 -5.8,-7 -15.6,-11.8 -9.2,-4.5 -10.1,-5.2 -10.1,-8.5 0,-3.6 1.7,-5.1 5.7,-5.1 2.8,0 3.6,0.5 5,3.5 1.4,2.9 2.2,3.5 4.9,3.5 6,0 8.4,-1.5 8.4,-5.3 0,-7.9 -8.8,-14.8 -19,-14.6 -3,0 -6.6,0.5 -8,1 z m -85.4,0.6 c -3.3,0.5 -3.5,-2.1 2.2,25.3 4.8,22.8 8.9,41 9.4,41.5 0.2,0.2 2.8,0.6 5.8,1 3.9,0.4 6,0.3 7.1,-0.7 1.4,-1.2 4.3,-16 7.6,-39.3 1,-7.5 1.7,-6 2.9,6 0.7,6.5 2.2,16.9 3.4,23 l 2.2,11.2 5.6,0.1 c 3.2,0.1 6.2,-0.1 6.8,-0.5 1.3,-0.9 15.4,-62.3 15.4,-67.1 0,-0.9 -1.7,-1.2 -6,-1.1 -3.2,0.1 -6.3,0.5 -6.8,0.8 -0.5,0.3 -1.5,3.1 -2.1,6.1 -1.1,5.6 -4.1,29.8 -4.1,33.4 0,1.2 -0.3,1.6 -0.9,1 -0.4,-0.5 -1.3,-6.7 -2,-13.7 -1.8,-20.6 -3,-26.4 -5.5,-27.1 -3,-0.8 -12.9,-0.7 -14.2,0.2 -1,0.7 -3.8,17.5 -5,31 -0.4,4 -1,7.5 -1.5,7.7 -0.4,0.3 -1,-2.5 -1.3,-6.2 -1.2,-13.5 -4.4,-31.5 -5.7,-32.4 -1.4,-0.9 -8,-1 -13.3,-0.2 z m 181,33.6 v 34.2 l 9.4,0.3 9.3,0.3 -0.6,-7.7 c -0.4,-4.2 -0.7,-19.8 -0.7,-34.6 V 541 h -17.5 z m 28.4,11.7 v 46 h 17.7 l -0.5,-11.9 c -0.3,-6.7 -0.1,-12.1 0.5,-12.4 0.5,-0.3 3,0.1 5.6,1 2.8,0.9 6,1.3 8.1,0.9 4.7,-0.9 10.1,-7.1 12.1,-13.8 3.5,-11.8 3.7,-31.7 0.4,-42.7 -0.7,-2.3 -3,-6.2 -5.2,-8.7 l -3.9,-4.4 h -6.9 c -6.7,0 -6.9,0.1 -8.5,3.2 -1.6,3 -1.7,3.1 -3,1.3 -0.8,-1 -1.4,-2.5 -1.4,-3.2 0,-1 -2,-1.3 -7.5,-1.3 h -7.5 z m 27.3,-25 c 0.4,4.1 0.5,13.5 0.1,20.8 -0.5,11.8 -0.8,13.4 -2.6,14.3 -1.1,0.6 -3.1,0.8 -4.4,0.5 l -2.4,-0.6 v -20.9 c 0,-11.4 0.3,-21.1 0.7,-21.5 0.4,-0.4 2.3,-0.6 4.3,-0.4 l 3.5,0.3 z m -914.6,22 c -12.1,2.3 -12.9,14.1 -4.3,63.5 21.4,121.8 58.6,234 115.2,347.5 23.2,46.3 40.5,77.1 69.7,124 74.4,119.3 160.4,225.9 271.6,337 66.8,66.7 127.3,120.7 207.1,185.1 98.1,79.2 209,157.3 324,228.2 64.4,39.7 164.1,96.8 202.6,116 17.4,8.7 28.1,10.6 34.8,6.2 3.6,-2.4 8.3,-12.6 9.7,-21 0.8,-4.6 1.2,-22.4 1.3,-51.5 0.1,-39.8 0.3,-45.2 1.9,-50.9 6.3,-22 19.1,-34.4 41.7,-40.2 7.9,-2 11.7,-2.2 56.5,-2.9 42.1,-0.6 48.7,-0.9 53.5,-2.4 13.2,-4.3 17.4,-10.8 14.6,-22.9 -2,-8.5 -5.2,-15.1 -23.4,-48.6 -115.2,-212.3 -240.4,-396.6 -381.1,-561.1 -42.3,-49.5 -65.4,-74.7 -121,-132.4 C 1348.4,988.4 1294.5,940 1216.1,878.9 1010.8,718.8 801.8,622.4 584.6,587.5 c -26.4,-4.2 -36.2,-5 -43.8,-3.5 z m 24.8,24.7 c 4.4,3.8 21.3,17 37.5,29.3 93.4,70.7 236.8,192 342.5,289.6 6.1,5.6 17.8,16.4 26.1,24 23.1,21.3 57.9,53.8 67.4,62.8 4.7,4.5 18.8,18 31.5,30.1 36.3,34.7 51.1,49.1 80.3,78 47.2,46.5 129.9,130 152.2,153.5 11.8,12.4 27.1,28.3 34,35.5 29.5,30.5 68.4,72.2 116.6,125.1 102.3,112.2 212.2,242.2 271.2,320.8 13.3,17.7 37.4,48.8 41.9,54 1.8,2.2 3.3,4.2 3.3,4.5 0,0.5 -1213.6,-1212.7 -1216,-1215.6 -2,-2.3 4.9,2.7 11.5,8.4 z m -13.6,0.5 c 7,8.2 1196.1,1197.9 1205.9,1206.5 3.4,3.1 6,5.8 5.8,6.1 -0.7,0.6 -8.6,-5.1 -20.6,-14.8 -5.2,-4.2 -18.5,-14.4 -29.5,-22.7 C 1617.6,1712 1490,1603.7 1357.6,1482 1159.7,1300.2 952.6,1088.7 785.1,897.5 708.6,810.2 630,715 586.6,657 c -6,-8 -15,-19.7 -20,-26 -8.6,-10.8 -19.2,-25 -20.9,-27.8 -1.7,-2.8 0.5,-0.8 6.3,6 z m 1360.1,-21.1 c -24.7,2.6 -80.9,13.4 -120.5,23.3 -78.8,19.6 -148.7,44.4 -227.5,80.6 -15,6.9 -58.9,28.9 -71.4,35.8 -4.5,2.4 -10.6,5.8 -13.6,7.5 -44,24.1 -103.9,61.9 -150.6,94.8 -25.3,17.9 -60.3,44.3 -60.4,45.5 0,0.7 3.9,4.3 8.8,8.2 37.3,29.9 85.3,73 126.7,113.6 12.7,12.4 23.1,22.6 23.3,22.6 0.3,0 4.9,-4.3 38.7,-36 24,-22.4 63.8,-59 86.6,-79.5 7.9,-7.2 17.3,-15.7 20.9,-19 3.6,-3.4 12.1,-11 19,-17 6.9,-6 15,-13.2 18,-15.9 7.4,-6.8 33.4,-29.5 42.9,-37.5 4.2,-3.5 11.2,-9.6 15.6,-13.5 4.4,-4 13.8,-12.1 20.9,-18.1 7.2,-6.1 19.1,-16.2 26.6,-22.5 7.4,-6.3 21.4,-18 31,-26 16.9,-13.9 21.1,-17.4 40.5,-33.2 11.4,-9.4 52.6,-41.9 66.8,-52.7 29.9,-22.8 54.7,-41.8 58.7,-45.1 2.5,-2 5.9,-4.5 7.5,-5.6 3,-1.8 -2.5,3.5 -21,20.3 -5.5,5 -15.8,15.1 -23,22.4 -7.1,7.4 -103.4,103.9 -213.9,214.6 -200.7,200.9 -201,201.2 -199.1,203.3 1.1,1.2 2.8,2 4.2,1.8 1.5,-0.2 77.5,-75.5 219.5,-217.5 119.5,-119.4 222,-222.2 227.7,-228.5 5.8,-6.2 11.2,-11.7 12,-12.2 0.9,-0.5 0.2,0.6 -1.5,2.5 -1.7,1.9 -8.1,9.9 -14.1,17.9 -20.5,27.2 -42.9,56.5 -54.3,71 -65,82.7 -152.5,185.7 -234.5,275.9 -8.2,9.1 -19.7,21.7 -25.5,28.2 -13.9,15.4 -53.9,58.7 -66.5,71.9 -5.5,5.8 -13.9,14.7 -18.7,19.7 -4.9,5.1 -8.8,9.7 -8.8,10.2 0,0.6 9.1,11.3 20.3,23.8 38.1,42.9 104.3,121.8 115.1,137.2 3.9,5.6 3.4,6.1 27.7,-26.4 120.2,-160.2 203.7,-329.1 245.3,-496 15.1,-60.8 22,-99 26.1,-144.8 l 0.6,-6.7 -8.8,0.1 c -4.8,0.1 -12.6,0.6 -17.3,1 z m 26,670.2 v 9.8 l 8.8,-0.3 8.7,-0.3 v -19 h -17.5 z m -1559.3,-2.6 c -0.9,8.9 -0.9,76.6 -0.1,82.7 l 0.7,4.7 9.3,-0.2 9.4,-0.2 V 1305 h 20 l 0.1,-3.3 c 0.1,-1.7 0.2,-5.1 0.3,-7.4 l 0.1,-4.3 h -20.5 v -24 h 26 v -17 h -44.7 z m 54.9,-5.1 c -0.3,0.9 -0.6,5.1 -0.6,9.5 v 7.9 h 18 v -19 h -8.4 c -6.7,0 -8.5,0.3 -9,1.6 z m 1394.4,44.9 v 46.5 h 19 v -37 h 20 v -15 h -20 v -24 h 26 v -17 h -45 z m 183.6,-42.3 c -0.4,2.4 -0.5,23.3 -0.4,46.5 l 0.3,42.3 4,0.1 c 2.2,0.1 6.1,0.2 8.7,0.3 l 4.8,0.1 v -26.7 c 0,-25.4 0.1,-26.8 1.9,-27.8 2.7,-1.4 7.8,-1.3 8.7,0.2 0.5,0.7 0.7,13 0.6,27.4 l -0.2,26.1 5.8,0.6 c 3.2,0.4 7.4,0.4 9.4,0.1 l 3.5,-0.6 -0.2,-29.8 c -0.3,-32.6 -0.4,-33.8 -6.5,-37.4 -5.4,-3.1 -16.3,-1.6 -19.9,2.8 -0.8,0.9 -1.7,1.6 -2.2,1.6 -0.5,0 -0.9,-6.8 -0.9,-15 v -15 h -16.9 z m -1544.9,-0.5 c -0.3,0.5 -0.8,5.2 -1.2,10.6 -0.4,5.3 -1.1,9.9 -1.5,10.2 -0.3,0.2 -2.2,0.5 -4.1,0.7 l -3.4,0.2 -0.3,6 c -0.3,6.4 0.4,7.6 5,7.6 h 2.6 l 0.4,22.7 c 0.3,21.7 0.4,23 2.6,26.5 1.2,2 3,3.9 4,4.3 0.9,0.4 6.3,1 12,1.3 l 10.2,0.5 v -7.6 c 0,-8.1 -0.4,-8.7 -7.2,-8.7 -1.7,0 -2.9,-0.7 -3.2,-1.8 -0.3,-0.9 -0.6,-9.6 -0.8,-19.2 l -0.2,-17.5 5.7,-0.3 c 6.4,-0.3 6.3,-0.2 5.1,-9.6 l -0.7,-4.6 h -9.7 v -6.4 c 0,-3.5 -0.3,-8.4 -0.6,-11 l -0.7,-4.6 H 474 c -3.7,0 -7,0.3 -7.2,0.7 z m 1507.8,3.7 c -0.3,2.3 -0.6,7 -0.8,10.6 l -0.2,6.5 -4.2,0.3 -4.3,0.3 v 6.4 c 0,6.2 0.1,6.5 2.8,7.1 1.5,0.3 3.3,0.7 4,1 0.9,0.2 1.2,5.5 1.2,21.9 0,30.2 0.7,31.5 18,32.3 l 9.8,0.5 0.7,-4.1 c 0.3,-2.2 0.3,-5.6 0,-7.6 -0.7,-3.4 -1,-3.6 -5.5,-4.2 -3.8,-0.5 -5,-1.1 -5.4,-2.8 -0.3,-1.1 -0.6,-9.9 -0.6,-19.4 V 1288 h 11 v -5.8 c 0,-3.1 -0.4,-6.2 -0.8,-6.9 -0.4,-0.6 -2.8,-1.3 -5.2,-1.5 l -4.5,-0.3 -0.6,-21.6 -14.8,0.4 z m -1402.5,16.7 c -5.9,1.8 -10,5.7 -13.4,12.8 -2.9,6.2 -3.1,7.4 -3.5,20.1 -0.4,15.6 0.7,21.9 5,28.3 4.8,7.3 6.9,8.2 18.4,8.2 9.5,0 10.2,-0.2 13.7,-2.8 3.8,-2.9 8,-10.3 9.2,-16.3 0.7,-3 0.5,-3.1 -3.1,-3.8 -2.1,-0.3 -5.5,-0.6 -7.5,-0.6 -3.3,0 -3.8,0.3 -3.8,2.2 0,1.3 -0.9,3.8 -2,5.5 -1.6,2.7 -2.6,3.3 -5.5,3.3 -4.7,0 -6.4,-2.9 -7.2,-11.9 l -0.6,-7.1 h 30.6 l -0.6,-9.3 c -1.1,-14.8 -3.5,-20.6 -11.2,-25.9 -4.6,-3.1 -12.9,-4.3 -18.5,-2.7 z m 10.4,13.2 c 2.6,2.6 4.4,10.3 2.9,11.8 -1.4,1.4 -7.7,2.3 -10.7,1.5 -3.1,-0.8 -3.4,-3.7 -1.1,-9.3 2.9,-6.9 5,-7.9 8.9,-4 z m 39.5,-12.8 c -6.1,2 -11.5,7.6 -13.4,13.9 -1.8,5.9 -1.8,6.9 -0.4,11.9 1.6,5.8 6.3,10.3 16.1,15.3 10.2,5.3 12.5,7.8 10.7,11.7 -0.6,1.4 -2.4,3.1 -3.9,3.7 -3.7,1.5 -8.4,-0.8 -11.1,-5.4 l -1.9,-3.3 -5.6,1.3 c -3.1,0.7 -5.9,1.5 -6.2,1.8 -1.4,1.4 2.3,9.4 6.2,13.2 4.8,4.8 11.2,6.7 19.7,5.7 12.5,-1.4 20,-9.3 19.9,-21 -0.1,-11.6 -4.5,-16.9 -19,-23.3 -9.3,-4.1 -12.1,-7.8 -8.4,-11.4 3.8,-3.8 10.4,-2.3 10.4,2.4 0,2.4 2.9,3 8.4,1.8 4,-0.8 4.6,-1.3 4.6,-3.4 0,-4 -3.8,-10.2 -7.8,-12.8 -4.8,-3.2 -12.2,-4 -18.3,-2.1 z m 50.6,-0.2 c -6.5,2.1 -9.6,4.8 -12.1,10.2 -2.7,5.8 -3.2,13.8 -1,18.8 1.9,4.4 5.8,7.7 15.1,12.6 12.2,6.5 13.8,8.6 9.3,12.9 -3.8,3.5 -7,3.7 -10.6,0.7 -1.8,-1.5 -3.2,-3.5 -3.2,-4.6 0,-2.2 -2.8,-2.5 -9.6,-0.8 -5.1,1.3 -5.5,2.8 -2.5,8.8 3,5.8 8.1,9.8 14.5,11.1 9.8,2 19.7,-0.7 24.9,-7 7.2,-8.5 5.8,-24.1 -2.7,-30.4 -1.7,-1.3 -6.9,-4.4 -11.5,-6.8 -9.9,-5.1 -11.3,-6.7 -9.1,-10.6 2.4,-4.2 6.1,-4.1 10.1,0.2 2.7,3 3.9,3.6 7.4,3.6 2.2,0 4.6,-0.5 5.3,-1.2 3.5,-3.5 -1,-12.8 -7.9,-16.3 -3.9,-2.1 -11.9,-2.6 -16.4,-1.2 z m 1224.2,-0.2 c -4.6,0.7 -8.4,3.4 -11.5,7.9 -2.9,4.3 -4.8,10.8 -3.6,12 0.5,0.5 4.2,1.2 8.1,1.6 l 7.2,0.7 0.6,-3.9 c 1,-6 1.3,-6.4 3.8,-6.4 3.6,0 4.8,2.1 5,8.6 l 0.2,5.9 -4,0.8 c -12.6,2.7 -16.8,5 -20.4,11.6 -3.6,6.6 -4.1,17.4 -1.1,23.6 2.7,5.5 5.1,7.3 10.5,7.6 7.1,0.4 8.4,0 11.6,-3.6 4,-4.3 5.9,-4.5 5.9,-0.5 v 3 h 15 l -0.1,-24.8 c 0,-13.6 -0.4,-27.1 -0.8,-30 -0.8,-5.8 -4,-10 -9.5,-12.6 -3.7,-1.7 -11.6,-2.4 -16.9,-1.5 z m 10.3,43.8 c 0,11.2 -3.2,16.7 -8.1,14 -1.9,-1 -2.1,-1.8 -1.7,-8.4 0.3,-6.1 0.7,-7.8 2.7,-9.9 1.4,-1.4 3.5,-2.6 4.8,-2.6 2.2,0 2.3,0.3 2.3,6.9 z M 506.9,1273.8 c -3.8,0.2 -6.8,0.6 -6.8,1 0,0.4 -0.3,15.7 -0.6,33.9 l -0.7,33.3 h 18.3 l 0.1,-17.8 c 0.1,-27.9 0.3,-34.6 1.2,-36 1,-1.4 6.5,-1.6 8.7,-0.2 1.3,0.8 1.5,5.2 1.8,27.5 l 0.3,26.5 h 18 l -0.4,-28.8 c -0.3,-31.3 -0.7,-33.7 -6.2,-38 -2.2,-1.8 -4.1,-2.2 -9.7,-2.2 -7.2,0 -9.3,1.1 -12.4,6.5 -1.4,2.5 -3.4,1.1 -3.4,-2.5 0,-1.6 -0.3,-3 -0.7,-3.2 -0.5,-0.2 -3.8,-0.2 -7.5,0 z m -73.6,33.9 0.3,33.8 8.8,0.3 8.7,0.3 V 1274 h -18 z m 1504.8,0.3 v 34 h 18 v -34 l -0.1,-34 h -17.9 z m -1116,30.8 c -98.2,132.3 -178.5,258.5 -263.7,414.2 -18.8,34.4 -23.3,44.5 -23.3,52.7 0,3.7 0.5,4.9 3.2,7.3 7.6,7 19.3,8.4 63.8,7.5 37.7,-0.7 48.1,0 61,4.1 9,2.8 18.4,8.8 24.1,15.2 5.6,6.4 11.4,18.7 14.1,30.2 2.2,9.1 2.3,11.5 2.3,53 0,23.9 0.4,44.8 0.8,46.5 3.1,11.8 4.3,15 7.1,17.7 2.8,2.8 3.4,3 8.5,2.5 9.7,-0.9 22.5,-7.2 86.1,-42.5 64.6,-35.9 128.3,-74 193.8,-115.7 19.5,-12.4 80.6,-53.4 102.7,-68.9 44.3,-30.9 100.4,-72.3 100.5,-74.1 0,-0.6 -7.5,-7.1 -16.6,-14.5 -50.3,-40.7 -117,-97.8 -137.6,-117.7 l -7.7,-7.5 -20.8,18.3 c -11.4,10.1 -22.1,19.5 -23.8,21 -34.6,30.6 -82.1,70.9 -137,116.4 -23.9,19.9 -78.5,63 -97.5,77.1 -8.4,6.2 -32.9,25 -47.7,36.6 -2.9,2.2 -6.5,4.7 -8,5.4 l -2.8,1.4 3,-2.6 c 13.2,-11.5 38.9,-37 162.4,-160.7 l 140.6,-140.7 -2,-2.5 c -1.1,-1.3 -2.8,-2.3 -3.8,-2.1 -2,0.3 -277.4,275.1 -293,292.3 -5.5,6.2 -10.3,11.1 -10.5,10.8 -0.2,-0.2 2.3,-3.9 5.7,-8.2 3.3,-4.3 14.6,-19.1 25.1,-32.8 36.7,-48.2 66.9,-86.6 89.3,-113.5 4.3,-5.2 12.6,-15.3 18.5,-22.4 26.8,-32.3 45,-53.6 83.5,-98.1 2.9,-3.2 15.7,-17.8 28.5,-32.4 l 23.2,-26.5 -19.3,-19.6 c -37.2,-37.6 -79.4,-83.9 -111.1,-121.8 -6.6,-7.8 -12.7,-14.2 -13.5,-14.2 -0.9,0.1 -4.5,4 -8.1,8.8 z m 385.2,559.9 c -4.9,0.4 -5.3,0.6 -6.7,3.9 -0.7,1.8 -1.5,3.4 -1.7,3.5 -0.2,0 -23.2,0.4 -51.3,0.9 -28,0.5 -52.4,1.2 -54.2,1.6 -2.9,0.6 -3.1,0.8 -2.2,3.3 2.2,5.7 18.2,19.5 32.3,27.7 7.6,4.5 20.5,9.8 27.5,11.3 2.9,0.6 14.6,1.6 26,2.1 27.6,1.3 36.2,3.6 40.5,10.9 4.4,7.5 0.9,20.4 -8,30.1 -6.1,6.5 -17.1,13.9 -28.2,19 l -7.3,3.3 0.6,20.2 16.4,0.1 h 16.5 l 4,-3.9 c 8.4,-8.1 21.1,-12 39.1,-12 18.4,0 33.4,4.7 40,12.5 l 2.8,3.3 16.8,0.2 16.9,0.3 v -4.4 c 0,-2.4 0.3,-7 0.6,-10.2 l 0.5,-5.9 -6.8,-2.9 c -23.8,-10.1 -38.3,-24.9 -39.8,-40.6 -0.8,-7.5 1,-10.7 12.3,-23 14.4,-15.4 23.9,-21.2 42.8,-26 8.4,-2.2 26.4,-5 31.7,-5 6.6,0 8.2,-1.3 10,-7.7 0.9,-3.2 1.9,-7.5 2.2,-9.5 l 0.7,-3.7 -84.4,0.1 c -46.3,0.1 -86.7,0.3 -89.6,0.5 z M 1913.8,206.3 c -0.6,1.6 -91.6,123.6 -95.9,128.5 -1.6,1.9 -2.8,3.7 -2.6,4.2 0.6,1.4 22,17 23.4,17 0.8,0 15.6,-19 32.9,-42.3 17.3,-23.2 32.4,-43.3 33.6,-44.7 l 2,-2.5 -0.5,7.2 c -0.6,7.1 -11.4,93.6 -14,112.3 -0.7,5.2 -1.1,9.9 -0.9,10.5 0.6,1.5 24.3,18.7 25.8,18.9 1.1,0.1 77.6,-100.6 96.8,-127.2 4.3,-6.1 4.4,-6.7 1.5,-8.3 -1.3,-0.7 -6.4,-4.3 -11.4,-8.1 -5.4,-4 -9.7,-6.6 -10.5,-6.2 -0.8,0.3 -14,17.6 -29.4,38.4 -15.4,20.8 -28.4,37.9 -28.9,37.9 -0.5,0.1 -0.6,-2 -0.2,-4.7 0.4,-2.6 3.3,-25.9 6.6,-51.9 3.3,-26 6.2,-49 6.6,-51.1 l 0.6,-3.9 -10.3,-7.5 c -5.7,-4.2 -13.3,-9.9 -16.8,-12.7 -6.8,-5.5 -7.6,-5.8 -8.4,-3.8 z M 493,259.1 c -7.1,1.6 -14.5,5.7 -24.4,13.2 -18.7,14.2 -61,50.2 -61,51.9 0,0.9 9.5,13 21.1,27 66.3,79.7 81.7,98.3 82.1,99.5 0.3,0.7 1.1,1.3 1.9,1.3 1.7,0 29.4,-22.8 29.4,-24.2 0,-1 -4.5,-6.7 -26.7,-33.5 l -14.3,-17.2 9.3,-8.1 c 5,-4.5 10.1,-8.6 11.2,-9.1 1.6,-0.8 5.4,0.9 20.5,9.4 10.2,5.7 24,13.4 30.8,17.1 l 12.2,6.8 14.7,-12.4 c 8,-6.8 15.5,-13 16.7,-14 2,-1.6 2,-1.6 -1,-3 -10,-4.4 -67.4,-35.2 -67.4,-36.1 0,-0.7 0.9,-3.6 2,-6.4 11.1,-29.3 -14.1,-63.7 -46.4,-63.2 -3.9,0.1 -8.7,0.5 -10.7,1 z m 10.8,38 c 11.5,5.6 15.8,20.8 8.8,31 -2.8,3.9 -27.3,25.1 -29.8,25.7 -0.7,0.1 -2.3,-1.1 -3.6,-2.8 -1.2,-1.7 -6.9,-8.7 -12.7,-15.6 -5.7,-6.8 -10.4,-12.8 -10.4,-13.4 0,-1.4 26.1,-22.8 30.5,-25 5.3,-2.5 11.8,-2.5 17.2,0.1 z M 347.4,399 c -15.5,2.8 -28.9,11.7 -40,26.4 -23.3,31 -17.9,68 14.7,100.6 20.8,20.8 45.1,32 69.7,32 17.8,0 30.8,-5.6 44.1,-18.9 9.4,-9.4 14,-16.3 18,-26.9 3.4,-9.1 4.2,-25.7 1.8,-36.5 -4.3,-19.1 -20.2,-41.6 -40.1,-56.6 -8.6,-6.5 -26.4,-15.3 -36.5,-18.1 -8.6,-2.4 -24.1,-3.3 -31.7,-2 z m 13.8,35.4 c 20.7,6.3 49.8,31.6 59.2,51.4 2.5,5.4 2.9,7.2 2.5,12.7 -0.3,5.4 -1,7.2 -4.2,11.9 -2.3,3.3 -5.9,6.9 -9,8.8 -4.6,2.9 -5.9,3.3 -12.6,3.2 -5.7,0 -8.8,-0.5 -13,-2.4 -22.5,-9.9 -47.2,-33.5 -54.3,-51.8 -3.7,-9.5 -1.3,-19.3 6.8,-27.5 7.3,-7.3 14.9,-9.2 24.6,-6.3 z m 1761.9,-15.3 c -10.7,8.8 -31,25.3 -45,36.7 -33.1,26.8 -64,52.2 -64,52.7 0,0.2 2.6,3.5 5.8,7.3 3.1,3.8 11.1,13.6 17.7,21.8 19.1,23.8 28.6,32.9 40,38.6 30.2,15.1 69.6,5.9 97.6,-22.9 22.8,-23.3 30.4,-54.1 20,-80.8 -3.3,-8.6 -10.7,-20 -22.1,-34 -4.4,-5.5 -12.6,-15.6 -18.2,-22.5 -5.5,-6.9 -10.5,-12.6 -11.2,-12.7 -0.6,-0.1 -9.9,7 -20.6,15.8 z m 29.9,43.6 c 9.1,12.1 11.4,17 11.5,24.8 0.4,23.2 -23.5,49.8 -50.9,57 -12.2,3.1 -23.6,1.3 -32.1,-5.1 -3.7,-2.8 -15.7,-16.3 -17.5,-19.5 -0.7,-1.4 3.6,-5.3 23.4,-21.2 13.3,-10.8 31.4,-25.4 40.2,-32.6 8.8,-7.2 16.5,-13 17,-13.1 0.6,0 4.4,4.4 8.4,9.7 z M 226,532.2 c -0.7,1.3 -4.1,6.9 -7.5,12.5 -3.5,5.5 -6.4,10.3 -6.4,10.6 0,0.3 3.9,3 8.8,6 17.8,11.1 62.9,38.6 68.5,41.7 3.1,1.7 5.4,3.6 5.1,4.1 -0.3,0.5 -5,0.7 -10.7,0.4 -20.4,-1 -81.5,-3 -91.7,-3 h -10.4 l -5.5,9 c -3,4.9 -7.8,12.7 -10.8,17.3 -2.9,4.5 -5.3,8.4 -5.3,8.7 0,0.4 -3.8,-1.9 77.5,48 34.7,21.3 63.5,38.9 64.1,39.2 0.6,0.2 2.2,-1.3 3.6,-3.4 7.2,-10.8 12.9,-20.5 12.6,-21.3 -0.3,-0.8 -8.1,-5.8 -58.8,-36.8 -8.5,-5.3 -19.7,-12.1 -24.9,-15.3 -5.2,-3.2 -9.9,-6.6 -10.4,-7.5 -0.9,-1.5 -0.5,-1.6 2.9,-1.1 2.2,0.4 19.4,1.1 38.4,1.7 19,0.6 46.4,1.5 60.9,2 20,0.7 26.7,0.6 27.5,-0.3 2,-2 16.7,-26.9 16.2,-27.4 -0.2,-0.3 -5.1,-3.3 -10.8,-6.7 -27.5,-16.7 -120.7,-74.2 -125.2,-77.2 -2.8,-1.9 -5.4,-3.4 -5.8,-3.4 -0.4,0 -1.3,1 -1.9,2.2 z m 1989.1,56.4 c -65.6,41 -91.3,57.2 -93.2,58.7 -1.6,1.3 -1.2,2.2 5.1,11.8 3.7,5.7 8.3,13 10.1,16.2 l 3.2,5.8 4.7,-2.7 c 5.7,-3.4 84.8,-52.5 93.1,-57.9 1.9,-1.3 12.3,-7.7 23,-14.3 10.7,-6.7 20.2,-12.5 21,-13 1.3,-0.8 1.3,-1.2 -0.1,-2.8 -0.9,-1.1 -4.3,-6.2 -7.4,-11.4 -9,-15 -11.8,-19 -12.9,-18.9 -0.6,0 -21.6,12.8 -46.6,28.5 z m 99,62.7 c -5.5,2.5 -33.6,15.8 -54.5,25.7 -13.7,6.5 -27.5,13.1 -38,18 -4.4,2.1 -13.6,6.4 -20.5,9.7 -6.9,3.3 -17.6,8.4 -23.7,11.3 -6.2,3 -11.3,5.8 -11.3,6.3 0,0.5 3.9,9.1 8.6,19.1 4.8,9.9 12.2,25.5 16.4,34.6 17.8,37.7 25,52.5 26,52.8 0.6,0.2 7.3,-2.6 14.9,-6.3 l 13.8,-6.7 -12.7,-27.1 c -7,-15 -14.6,-30.9 -16.9,-35.4 -2.2,-4.6 -4.1,-8.8 -4.1,-9.5 0,-1.6 31.4,-16.2 33.2,-15.5 0.7,0.3 2.2,2.7 3.2,5.3 2.8,7.1 22.6,48.7 23.6,49.8 0.6,0.6 4.8,-1 10.7,-3.8 5.4,-2.7 11.5,-5.5 13.6,-6.3 2,-0.8 3.7,-1.9 3.7,-2.3 0,-1.4 -3.2,-8.3 -19.4,-42.4 -3.6,-7.6 -6.6,-14.2 -6.6,-14.5 0,-0.8 5.7,-3.7 19.4,-9.8 9.3,-4.2 12.6,-4.8 12.6,-2.3 0,0.6 6.6,14.9 14.6,31.8 8.1,16.9 15.3,32.2 16,33.9 0.8,1.8 2,3.3 2.8,3.3 1,0 26.9,-11.4 28.4,-12.5 0.3,-0.3 -7.9,-17.8 -29.8,-64 -19.6,-41.3 -20.3,-42.9 -20.2,-43.8 0.3,-0.9 -0.8,-0.8 -3.8,0.6 z M 105.4,808.9 c -13.7,4.7 -25.7,17.3 -33.2,35.1 -10.7,25 -8.9,49.5 5,67 3.8,4.8 13.2,13 14.9,13 1.1,0 16,-28.4 16,-30.4 0,-0.9 -0.4,-1.6 -0.9,-1.6 -0.5,0 -3,-2.1 -5.5,-4.6 -9.2,-9.1 -9.7,-20.9 -1.4,-33.1 4.7,-6.9 14.7,-10.2 22.5,-7.2 3.5,1.3 9,6.4 11,10.3 2.7,5.1 1.2,17.3 -3.6,29.5 -1.2,2.8 -2.1,5.8 -2.1,6.5 0,0.8 5.2,2.9 13.7,5.5 7.5,2.3 13.7,4 13.8,3.9 0.1,-0.2 2.1,-6.1 4.5,-13.1 2.4,-7.1 5.6,-14.9 7.2,-17.3 5.2,-8.2 16.3,-10.7 26.3,-6 6,2.8 7.7,4.6 10.6,11.1 6.3,14.3 -4,34.4 -20.1,38.9 -3.4,1 -7.8,1.6 -9.8,1.4 l -3.7,-0.3 -2.9,16.1 c -1.6,8.9 -2.6,16.9 -2.3,17.8 0.5,1.3 2.2,1.6 8.4,1.6 26.8,-0.1 48.5,-16.6 57.8,-44.1 8,-23.3 8.2,-42.7 0.5,-57.9 -5.9,-11.7 -17.7,-20.9 -30.9,-24 -7.1,-1.7 -18.4,-0.9 -24.3,1.8 -4.5,1.9 -15.1,11.6 -19,17.2 l -1.7,2.5 -0.1,-5.1 c 0,-9.5 -5,-20 -12.4,-26.7 -9.7,-8.7 -26.1,-12 -38.3,-7.8 z M 2326.1,827 c -39.6,4.7 -73.5,27.5 -82.2,55.3 -3.3,10.3 -3.2,28.1 0.1,38.7 5.2,16.8 14.6,28.9 26.8,34.6 3.5,1.6 6.3,3.2 6.3,3.6 0,0.3 -3.6,2.9 -8,5.7 -8.9,5.8 -8.6,4.7 -5.1,15.6 1.2,3.6 2.2,5.1 3.6,5.3 1.1,0.1 9.7,-2 19,-4.8 9.4,-2.7 27.7,-8 40.7,-11.7 17.4,-5 23.8,-7.2 23.8,-8.3 0,-0.8 -2.2,-9.2 -5,-18.5 -2.7,-9.4 -6.8,-23.6 -9.2,-31.7 -3.3,-11.4 -4.6,-14.7 -5.8,-14.4 -14.2,3.6 -28,8.3 -28,9.5 0,0.8 1.8,7.5 4.1,14.9 2.7,9 3.7,13.8 3,14.5 -1.8,1.8 -10.6,2 -16.2,0.3 -7.3,-2.1 -12.2,-6.4 -16,-14.1 -11.7,-23.7 7.3,-44.9 48.6,-54.2 27.1,-6.1 44.2,-1.8 51.5,13.1 5.9,12 3.5,23.5 -6.7,32.6 -2.6,2.3 -6.5,5.1 -8.5,6.1 -2.1,1.1 -3.8,2.3 -3.8,2.8 0,0.8 13.9,32.3 14.5,33 1.2,1.2 15.5,-7.8 21.9,-13.8 6.2,-5.8 13,-16.9 15.5,-25.6 2.1,-7 2.3,-9.2 1.8,-20.9 -0.6,-15 -2.3,-21.4 -8.9,-33.8 -4.6,-8.6 -13.1,-18 -21.1,-23.3 -13.9,-9.2 -34.9,-13 -56.7,-10.5 z M 39.3,969.2 c -1.2,7.3 -5.3,32.4 -9.2,55.8 -3.8,23.4 -7.3,43.8 -7.6,45.3 -0.3,1.5 -0.2,2.7 0.3,2.6 0.4,-0.1 1.5,0.1 2.3,0.4 0.8,0.4 11.4,2.2 23.5,4.1 12.1,2 38.4,6.3 58.5,9.6 65,10.8 79.4,13 80.1,12.2 0.7,-0.7 5.9,-33.3 5.9,-36.5 0,-1.1 -0.8,-1.7 -2.4,-1.7 -2.2,0 -51.8,-8.1 -58.9,-9.6 -2.5,-0.5 -2.8,-0.9 -2.2,-3.2 0.4,-1.5 2.7,-14.9 5.1,-29.7 2.4,-14.9 4.6,-27.7 4.8,-28.6 0.3,-1.4 -1.8,-2 -12.8,-3.8 -13.7,-2.2 -18.6,-2.6 -18.6,-1.4 0.1,2.3 -9.4,59.9 -9.9,60.5 -0.7,0.8 -36.1,-5 -37.3,-6.1 -0.4,-0.3 -0.3,-2.4 0.2,-4.6 1.3,-5.3 12,-70 12,-72.3 0,-1.4 -2.3,-2.1 -13.8,-4 C 51.8,957 44.7,956 43.6,956 c -1.9,0 -2.3,1.3 -4.3,13.2 z m 2315.4,43.3 c -24.7,4 -41.9,11.9 -56.4,25.9 -18.3,17.5 -23.6,44 -14.3,71.2 9.3,27.3 32.8,42.7 68.8,45 38.7,2.6 78.8,-15.9 92.3,-42.6 5.1,-10.1 6.4,-16.4 6.4,-29.5 0,-20.1 -5.5,-35.1 -17.5,-47.8 -10.1,-10.9 -22.9,-17.8 -39.3,-21.3 -10.2,-2.2 -29.3,-2.6 -40,-0.9 z m 40.5,40.9 c 12.9,2.8 20.5,9 23.5,19.2 4.7,16.2 -4.1,28.5 -25.3,35.4 -25.9,8.4 -53.3,8.9 -68.2,1.3 -7,-3.6 -10.6,-8.3 -12.6,-16.1 -5.1,-19.9 9.6,-33.6 42.5,-39.6 10.1,-1.9 31.8,-1.9 40.1,-0.2 z M 91.1,1360 c -0.7,2.5 -2.8,10.8 -4.6,18.5 -1.9,7.7 -3.7,14.7 -3.9,15.5 -0.4,1.3 1,1.5 9,1.5 6.5,0 9.5,-0.4 9.5,-1.2 0,-1 -7.7,-35.6 -8.4,-37.8 -0.2,-0.6 -0.9,1 -1.6,3.5 z m 2272.1,2.7 c -0.6,3.7 -2.5,12.2 -4.2,18.7 -1.6,6.6 -2.6,12.3 -2.2,12.7 0.4,0.4 4.5,0.9 9.1,1.1 7.4,0.3 8.2,0.1 8.2,-1.5 0,-3.2 -6.9,-32.6 -8.3,-35.3 -1.3,-2.5 -1.4,-2.3 -2.6,4.3 z m -2316.1,9.6 c 1.9,7.6 9.2,32.3 9.9,32.9 0.3,0.4 4.3,-1.2 8.8,-3.5 L 74,1397.4 61.4,1384 C 47,1368.5 46,1367.6 47.1,1372.3 Z m 77.4,10.3 c -7.1,7.5 -13,14.2 -13.2,14.9 -0.2,0.7 0.8,1.5 2.1,1.9 1.4,0.3 4.8,2.1 7.6,4 6,4.1 5.7,4.3 9.5,-8.1 6.6,-21.2 7.8,-25.5 7.4,-25.9 -0.3,-0.2 -6.3,5.7 -13.4,13.2 z m 2273.1,0.4 c -7.6,7.7 -13.6,14.2 -13.4,14.4 0.9,0.8 16.2,8.7 16.4,8.4 0.5,-0.6 11.3,-36.3 11.1,-36.5 -0.1,-0.2 -6.5,6 -14.1,13.7 z m -77.5,-11.8 c 0,1.4 7.2,24.9 9.7,31.5 l 1.6,4.3 2.6,-1.9 c 1.4,-1 5,-3 7.9,-4.5 2.8,-1.4 5.2,-2.9 5.2,-3.2 0,-0.9 -25.4,-27.4 -26.2,-27.4 -0.5,0 -0.8,0.5 -0.8,1.2 z m -2308,31.2 c 0,0.2 6.3,6.2 13.9,13.4 9.7,9.2 14.4,13 15.5,12.6 0.9,-0.3 1.6,-1.1 1.6,-1.8 0,-0.6 1.8,-3.9 3.9,-7.2 l 3.9,-6.2 -11.2,-3.2 c -16.9,-4.9 -27.6,-7.8 -27.6,-7.6 z m 2423,2.7 c -5.2,1.5 -13.6,4 -18.5,5.5 l -9.1,2.8 4.5,7.8 c 2.4,4.3 4.7,7.8 5.2,7.8 0.4,0 5.8,-4.8 12.1,-10.6 15.8,-14.9 16.2,-15.3 15.7,-15.7 -0.2,-0.2 -4.7,0.9 -9.9,2.4 z m -2354.4,-1 c -2.1,0.5 -6.5,2.3 -9.7,4 -25.2,13.5 -32.1,47.2 -14.2,69.4 8.7,10.6 17.7,15.1 32.5,16.2 10,0.7 18.3,-1 25.6,-5.4 15.1,-9.1 22.4,-21.8 22.3,-39.2 0,-26.7 -19.3,-46.3 -45.1,-46 -4.1,0.1 -9.2,0.5 -11.4,1 z m 79.4,1.4 c -11.4,3.4 -25.5,7.8 -25.8,8.1 -0.2,0.1 0.5,1.5 1.6,3.1 1.1,1.5 3.1,4.9 4.6,7.5 1.5,2.7 3.1,4.8 3.5,4.8 0.5,0 6.9,-5.8 14.2,-13 9.3,-8.9 12.8,-12.9 11.4,-12.9 -1.1,0.1 -5.4,1.1 -9.5,2.4 z m 2127,-1.7 c 0,1.5 26.7,25 27.6,24.4 0.6,-0.4 2.3,-3 3.8,-5.7 1.6,-2.8 3.6,-5.8 4.4,-6.8 0.8,-0.9 1.3,-1.9 1,-2.2 -0.5,-0.5 -35.2,-10.5 -36.3,-10.5 -0.3,0 -0.5,0.4 -0.5,0.8 z m 64.5,1 c -26.4,9.1 -39.2,40 -26.8,64.6 3.3,6.6 12.6,16.2 18.5,19.2 15.7,8 33.9,7.1 47.9,-2.2 7.4,-4.9 12.4,-11 16.6,-20 3.6,-7.8 4.4,-21.2 1.8,-30 -4.3,-14.8 -16.2,-27 -30.7,-31.6 -7.7,-2.3 -20.5,-2.4 -27.3,0 z m -2316,34.9 C 8,1446.2 -4.5,1450 1.5,1450 c 1.8,0 33.6,6.7 35.9,7.5 0.9,0.4 1.2,-1.9 1.4,-9 0.1,-5.2 -0.2,-9.4 -0.5,-9.4 -0.4,0.1 -1.6,0.3 -2.7,0.6 z m 110.5,7.8 c 0,4.6 0.5,8.7 1,9 0.6,0.4 8.9,-1.1 18.5,-3.1 15.9,-3.4 17.3,-3.9 15.1,-5.1 -2.9,-1.5 -14,-4.6 -25.8,-7.2 l -8.8,-1.9 z m 2163.5,-7.7 c -7.8,1.6 -34.1,8.4 -34.8,9.1 -0.4,0.4 3.5,1.5 8.7,2.5 5.1,1 13.4,2.8 18.4,4 l 9,2.2 0.7,-8.9 c 0.4,-4.9 0.5,-9 0.3,-9.1 -0.2,-0.1 -1.2,-0.1 -2.3,0.2 z m 109.7,7.4 c 0.2,4.8 0.7,8.3 1.5,8.9 0.8,0.7 6.2,0 17.5,-2.5 9,-2 17.2,-3.6 18.3,-3.6 6.7,0 -15.7,-6.8 -32.7,-9.9 l -4.8,-0.8 z M 28.4,1478.7 c -13.5,12.7 -17,16.3 -15.9,16.3 0.6,0 34.4,-10.4 37.5,-11.5 1.1,-0.4 1,-1 -0.7,-2.8 -1.2,-1.2 -3.4,-4.9 -5.1,-8.1 l -2.9,-5.9 z m 2387.1,-8.5 c -0.9,1.8 -2.8,5.1 -4.3,7.3 -1.4,2.2 -2.6,4.5 -2.7,5.1 -0.2,1 24,9 34.5,11.5 l 3.4,0.8 -3.4,-3.3 c -1.9,-1.8 -8.4,-8.1 -14.6,-14 l -11.2,-10.8 z m -2276.1,4.9 c -2.4,3.8 -4.3,7.3 -4.3,7.8 0,0.8 36.1,12.3 36.7,11.7 0.5,-0.4 -26.7,-26.6 -27.5,-26.6 -0.4,0 -2.6,3.2 -4.9,7.1 z m 2159.7,6.5 c -7.4,7.5 -12.6,13.4 -11.5,13 2.8,-1 12.3,-3.9 24.8,-7.7 5.9,-1.8 10.7,-3.6 10.7,-4 0,-2.3 -8.4,-14.8 -10,-14.9 -0.3,0 -6.6,6.1 -14,13.6 z M 55.2,1495.7 c -1.1,5 -5.3,19.2 -8,27.5 -1.9,5.7 1.7,3.2 13.4,-9.4 6.6,-7.1 12.1,-13.3 12.3,-13.7 0.1,-0.4 -1,-1.3 -2.4,-2 -1.5,-0.6 -5,-2.8 -7.9,-4.6 -2.9,-1.9 -5.4,-3.5 -5.6,-3.5 -0.3,0 -1,2.6 -1.8,5.7 z m 2269.5,13.5 c -3.2,10.5 -5.5,19.2 -5.3,19.4 0.2,0.3 2.1,-1.5 4.2,-3.8 2.1,-2.4 8.2,-8.9 13.6,-14.5 9.8,-10.1 9.8,-10.2 7.7,-11.8 -1.3,-0.8 -2.6,-1.5 -3.1,-1.5 -0.4,0 -3.2,-1.5 -6.1,-3.4 l -5.3,-3.4 z m 69.1,-14.7 c -3.8,2.4 -7.3,4.5 -8,4.8 -0.6,0.2 4.7,6.8 11.9,14.6 8.2,9.1 13,13.7 13.2,12.7 0.3,-1.4 -4.5,-18.9 -8.6,-31.3 l -1.7,-5.2 z m -2270.2,-1.9 c -1.1,0.9 -4.4,2.9 -7.2,4.6 l -5.3,3 13.2,13.9 c 7.3,7.6 13.4,13.7 13.6,13.5 0.2,-0.2 -1.1,-5.5 -2.8,-11.8 -7.3,-26.3 -7.3,-26.4 -11.5,-23.2 z m -37.4,24.8 c 2,8.3 4.4,16.9 5.2,19.1 1.7,4.7 1,6.7 6.2,-16.9 1.9,-8.8 3.4,-16 3.2,-16.1 -0.1,-0.1 -4.3,-0.5 -9.3,-0.7 l -9,-0.5 z m 2272,-4.9 c 1.5,5.5 3.6,13.9 4.6,18.7 0.9,4.9 2,8.8 2.4,8.8 0.8,0 2.7,-7.5 6,-22.5 1.1,-5.5 2.5,-11.1 2.9,-12.5 l 0.7,-2.5 h -19.3 z m -2115.6,268 c -33.5,20.1 -61,36.7 -61.3,37 -0.9,0.9 16.6,28 17.9,27.7 3.7,-0.9 120.8,-71.9 120.8,-73.2 0.1,-0.9 -2.4,-5.7 -5.4,-10.8 -3,-5.1 -6.4,-11.1 -7.5,-13.3 -1.1,-2.1 -2.4,-3.9 -2.9,-3.9 -0.5,0 -28.2,16.4 -61.6,36.5 z m 1920.6,-27.4 c -2.9,4.5 -5.9,9.2 -6.7,10.4 -1.5,2.3 -1.4,2.5 2.3,4.8 2.1,1.4 15.3,9.9 29.3,18.9 14,9 28.1,18 31.2,19.9 3.2,1.9 5.8,3.8 5.8,4.2 0,0.9 -5.4,0.6 -48,-1.9 -13.5,-0.8 -29.9,-1.7 -36.5,-2.1 l -12,-0.6 -9.2,14.6 c -5.1,8.1 -9.3,15.1 -9.3,15.6 0,0.6 1,1.6 2.3,2.2 1.2,0.7 5.8,3.6 10.2,6.5 4.4,2.8 29.2,18.9 55,35.6 25.9,16.7 48.1,31.2 49.5,32.1 l 2.6,1.7 6.7,-10.4 c 3.7,-5.7 6.7,-10.7 6.7,-11.2 -0.1,-0.9 -70.8,-46.8 -76.2,-49.4 -1.8,-0.8 -3.3,-2.1 -3.6,-2.8 -0.3,-1.1 2.3,-1.2 13.4,-0.7 13.9,0.6 51.3,2.7 80.4,4.5 8.5,0.6 15.8,1 16.3,1 0.9,0 15.7,-22.3 15.7,-23.8 0,-0.6 -1,-1.7 -2.2,-2.3 -1.3,-0.7 -17.6,-11.1 -36.3,-23.2 -18.7,-12 -37.3,-24 -41.3,-26.6 -4,-2.5 -14.3,-9.2 -22.8,-14.9 -8.6,-5.6 -16.2,-10.2 -16.9,-10.2 -0.7,0 -3.6,3.6 -6.4,8.1 z m -1829.1,58.5 c -3,2.4 -28.1,21.3 -55.8,42 -27.7,20.7 -50.6,38.2 -50.9,38.9 -0.2,0.8 0.5,2.4 1.7,3.7 1.2,1.3 5.3,6.6 9.2,11.8 3.9,5.2 7.4,9.9 7.8,10.3 0.4,0.5 10.6,-6.5 22.6,-15.6 22.4,-16.7 25.4,-18.7 25.4,-16.3 0,0.7 2.9,5.1 6.5,9.7 l 6.4,8.4 -1.8,3 c -1,1.6 -8.2,13.1 -16,25.5 -7.7,12.4 -14.1,23.2 -14.1,24.1 0,0.9 0.7,2.2 1.6,3 0.9,0.7 5.7,6.7 10.6,13.3 5,6.7 9.2,12.2 9.3,12.4 0.3,0.4 14.8,-23.7 25.8,-42.8 4.9,-8.5 9,-15.6 9.1,-15.7 0.1,-0.1 2.9,0.9 6.2,2.2 11,4.6 26.1,2.9 36.9,-4 16.1,-10.3 23,-30 16.8,-48.4 -2.2,-6.6 -6.1,-12.5 -25.1,-38.1 -9.6,-12.9 -18.6,-25.1 -20,-27 -4.6,-6.3 -5,-6.3 -12.2,-0.4 z m 17.3,50.2 c 10.3,13.9 12.1,17.4 11.3,22.4 -0.8,4.7 -4.5,10.8 -7.8,13 -3.8,2.5 -10.7,4 -14.6,3.3 -4.7,-0.9 -11.8,-7.7 -21,-20.4 -7,-9.6 -7.5,-10.5 -5.8,-11.5 1.1,-0.6 7.8,-5.5 15,-10.8 11,-8.2 13.3,-9.5 14.1,-8.2 0.6,0.8 4.5,6.3 8.8,12.2 z m 1729.7,24.8 c -5.9,1.2 -14.5,5.2 -20.5,9.6 -12.2,8.9 -21.2,23.4 -24.2,38.8 -1.5,7.4 -1.5,8.9 -0.1,16.8 2.1,11.3 4.8,18.5 10.7,27.4 19.1,29.3 54,47.5 82,42.8 18.7,-3.1 37.3,-19.4 44.3,-38.6 2.6,-7.3 3.5,-22.5 1.8,-30.8 -2.9,-14.2 -16.8,-34.6 -31.7,-46.7 -9,-7.2 -23.3,-14.8 -32.8,-17.4 -6,-1.6 -24.7,-2.8 -29.5,-1.9 z m 20.5,33.3 c 9.5,4.7 20.8,13.5 30.5,23.7 16.8,17.8 19.2,29.4 8.4,41.4 -11.7,12.9 -31.9,7.5 -55.7,-14.9 -11.9,-11.3 -19.7,-24.1 -19.7,-32.6 0,-6.8 6.3,-16.1 13.5,-20 4.8,-2.6 15,-1.5 23,2.4 z M 420.9,1941 c -18.7,3.3 -31.4,10.4 -46.8,25.9 -15.1,15.2 -23.3,30.4 -26.1,48.9 -2.5,16.6 3.4,32.6 17,46.2 19,18.8 42.5,22.5 67.8,10.6 34.6,-16.4 58.6,-54.1 53.4,-84.2 -3.3,-19.2 -20.9,-38.9 -40.3,-45.2 -7.4,-2.5 -18.4,-3.4 -25,-2.2 z m 23.4,31.6 c 1.5,0.8 4.3,3 6.3,4.9 8,8.1 8.9,15.3 3.2,26.7 -7.7,15.5 -24.8,32.7 -40.9,41 -12.1,6.3 -19.2,6 -27,-1 -14.2,-12.9 -9.5,-30.7 14.3,-53.8 17.9,-17.3 33.1,-23.4 44.1,-17.8 z m 1539.3,15.8 c -6.2,1.6 -11.5,4.3 -18.2,9.4 -4.9,3.7 -27.9,23.6 -41.8,36.2 -3.3,3 -7.7,6.9 -9.8,8.7 -2,1.8 -3.7,3.6 -3.7,4.1 0,0.5 4.6,6 10.3,12.4 17,19.2 45.7,51.5 55.2,62.3 16.6,18.8 28.8,32 29.4,31.8 1.5,-0.6 24.1,-20.7 24.1,-21.5 0,-1 -32.3,-37.5 -35.4,-40 -2.1,-1.7 -2,-1.8 6.4,-9.7 4.7,-4.4 9.3,-8 10.2,-8.1 1,0 12.9,5.7 26.5,12.7 13.6,7.1 25.5,13.1 26.4,13.5 1.2,0.4 3.3,-0.8 7,-4.3 3,-2.7 9.1,-8.2 13.6,-12.2 l 8.3,-7.2 -3.8,-2 c -2,-1 -15.6,-7.7 -30.2,-14.7 -29.7,-14.4 -27.5,-12.3 -24.6,-23.3 4.9,-18.3 -9.1,-41 -28.8,-47.1 -7.1,-2.2 -15.2,-2.6 -21.1,-1 z m 9.9,33.1 c 7.1,3.4 11.3,12.6 9.4,20.4 -0.9,4 -2.6,6.1 -13.6,16.8 -6.9,6.6 -13,11.9 -13.7,11.7 -1.8,-0.7 -23,-25.4 -23,-26.9 0,-1.9 21.2,-20.4 26,-22.7 4.6,-2.1 9.3,-1.9 14.9,0.7 z m -1461.1,4.2 c -1.1,1 -8.1,9.7 -15.5,19.3 -7.4,9.6 -26,33.7 -41.3,53.5 -15.3,19.8 -28.2,36.5 -28.7,37.1 -0.5,0.7 2.8,3.8 9.2,8.7 5.5,4.3 10.2,7.7 10.4,7.7 0.3,0 9.3,-11.4 20.1,-25.3 10.7,-13.8 23,-29.7 27.3,-35.1 4.2,-5.5 8.5,-11.2 9.4,-12.8 1.9,-3.1 4.2,-3.8 3.4,-1.1 -0.3,1 -2.6,16.4 -5.1,34.3 -2.5,17.9 -5.2,36.8 -6,42 -0.8,5.2 -2.2,14.8 -3.1,21.3 l -1.7,11.8 2.4,1.6 c 1.3,1 6.2,4.8 10.8,8.5 4.7,3.7 8.8,6.8 9.1,6.8 0.8,0 11.2,-13.1 38.5,-48.5 11.4,-14.9 23.6,-30.6 27,-35 3.4,-4.4 9.9,-12.9 14.5,-18.9 l 8.2,-11 -2.8,-2 c -1.6,-1.2 -6,-4.7 -9.7,-7.8 -3.8,-3.1 -7.4,-5.5 -8,-5.2 -0.7,0.3 -9.3,11.1 -19.2,24 -9.9,12.9 -19.9,26 -22.3,29 -6.9,9.1 -10.1,12.8 -10.6,12.3 -0.2,-0.2 0.2,-3.3 1,-6.9 1.4,-6.7 12.4,-83.9 12.4,-87.5 0,-1.1 -1.4,-3 -3.3,-4.2 -1.7,-1.3 -7.7,-5.9 -13.2,-10.3 -5.5,-4.4 -10.3,-8 -10.6,-8 -0.4,0 -1.6,0.8 -2.6,1.7 z m 1343.4,45.4 c -1.6,0.9 -24.6,17.5 -25.6,18.5 -0.2,0.2 1,2 2.6,4.1 1.7,2.1 17.6,24 35.3,48.8 50.9,70.8 45.4,64.1 50.4,60.4 1.7,-1.3 7.4,-5.4 12.6,-9.2 5.2,-3.7 9.5,-7.1 9.5,-7.5 0,-0.4 -2.2,-3.8 -5,-7.6 -24.8,-34.2 -66.9,-92.6 -71.2,-98.9 -3,-4.2 -5.9,-7.7 -6.4,-7.7 -0.6,0 -0.7,-0.5 -0.4,-1 0.8,-1.2 0.5,-1.2 -1.8,0.1 z m -1155,91.9 c -7.5,1.9 -14.4,6 -19.9,11.8 -12.9,13.5 -16.2,30.5 -8.8,45.4 3.8,8 10.6,15.1 26.2,28.1 16.7,13.8 18.9,17.7 14.9,25.5 -4.3,8.3 -13.4,9.7 -25.7,3.8 -12.8,-6.1 -19.9,-15.8 -19.3,-26.5 0.2,-2.2 0,-4.3 -0.3,-4.6 -1.3,-1.3 -26.3,-6.6 -28.5,-6 -2.2,0.5 -2.3,0.9 -2.3,9.6 0,25.6 16.6,44.6 48.7,55.6 6.4,2.1 9.7,2.6 18.3,2.7 15.5,0.1 25.3,-3.8 34.8,-13.7 14.4,-15.3 15.9,-35.3 3.9,-52.9 -2.6,-3.7 -8.1,-9.3 -13.7,-14.1 -23.2,-19.2 -26.9,-23.5 -25.5,-29.6 0.3,-1.5 2.2,-4.3 4.1,-6.2 3,-2.9 4.2,-3.4 8.2,-3.3 8.7,0.2 21.1,7.5 25,14.8 0.9,1.7 1.9,5.8 2.2,9.1 l 0.5,6 10.3,1.1 c 5.7,0.7 12.1,1.4 14.2,1.8 4.6,0.7 4.8,0.2 3.9,-11.9 -1.1,-14.5 -9.5,-26.7 -24.5,-36.1 -12.3,-7.7 -21.2,-10.6 -32.9,-11 -5.5,-0.2 -11.7,0.1 -13.8,0.6 z m 1003.1,2 c -15.3,3.8 -30.5,12.7 -37.2,21.9 -2,2.7 -4.8,7.5 -6.4,10.7 -2.5,5.4 -2.7,6.9 -2.7,17.5 0,11.3 0.1,11.7 3.7,19 4.8,9.6 12,16.7 20.3,19.8 5.4,2.1 7.2,2.3 18,1.8 8.6,-0.4 15.7,-1.5 25,-3.7 15.3,-3.8 22.9,-4.3 26.8,-1.7 9.3,6.1 7.4,18.1 -4.1,25.7 -13.8,9.1 -28.9,9.6 -36.6,1.1 -1.1,-1.2 -2.7,-2.1 -3.6,-2.1 -2,0 -23.4,17.4 -23.8,19.4 -0.4,2 8.1,9.1 15,12.5 12.5,6.3 26.4,6.6 43.3,1 23.1,-7.7 40.4,-23.1 45,-40.2 2.3,-8.7 1.7,-22 -1.4,-30 -3.2,-8.1 -11.4,-16.8 -19.9,-20.9 -6.5,-3.2 -7,-3.3 -19.7,-3.3 -11.5,0.1 -14.7,0.5 -28.1,3.8 -16.5,4.1 -21.8,4.5 -25.2,2.1 -3,-2.1 -5.2,-6.6 -5.2,-10.9 0,-6.7 12.1,-16.4 22.7,-18.1 5.2,-0.8 11.2,0.9 15.8,4.6 3.4,2.7 4,2.9 5.4,1.5 0.9,-0.8 5.8,-5.5 10.9,-10.4 l 9.4,-8.9 -5.4,-4 c -13.3,-10 -25.2,-12.3 -42,-8.2 z m -897.1,71.2 c -5.2,15.6 -15.4,45.7 -22.6,67 -7.2,21.3 -13.1,39 -13.1,39.5 0.1,0.4 7,3.1 15.5,5.8 l 15.5,5 1.1,-3 c 0.6,-1.6 4.9,-14 9.5,-27.4 4.5,-13.4 8.5,-24.5 8.8,-24.8 0.4,-0.5 40.2,12.4 41.5,13.4 0.5,0.3 -8.2,26.5 -15.5,47.1 -1.9,5.1 -2.9,9 -2.4,8.7 0.6,-0.3 1,-0.2 1,0.4 0,0.5 6.6,3 14.6,5.6 11.7,3.7 14.9,4.4 15.5,3.3 1,-1.5 1.1,-1.8 21.9,-62.8 8.9,-26.1 17.9,-52.9 20,-59.5 l 3.8,-12 -14.1,-4.7 c -7.8,-2.6 -15,-4.8 -15.9,-4.8 -1.3,0 -3.6,5.8 -10.3,26 -4.8,14.3 -8.7,26 -8.8,26 -1.9,-0.1 -42.1,-14.2 -42,-14.7 0.1,-0.5 4.1,-12.4 8.8,-26.6 4.8,-14.2 8.6,-25.9 8.4,-26.1 -1.1,-0.8 -28.6,-9.6 -30,-9.6 -1.2,0 -4,6.9 -11.2,28.2 z m 793.2,-24 -11.7,4.1 1.5,4.1 c 5.3,14.5 25.2,75 24.8,75.4 -0.3,0.3 -4.2,-3.1 -8.7,-7.4 -4.6,-4.3 -19.6,-17.8 -33.3,-30 -13.8,-12.2 -25.9,-23.1 -26.9,-24.3 -1.1,-1.1 -2.5,-2.1 -3.3,-2.1 -0.8,0 -8.7,2.6 -17.7,5.7 l -16.4,5.6 20,59.1 c 21.8,64.7 25.6,75.7 26.1,76.3 0.7,0.6 24.2,-7.6 24,-8.4 -0.3,-1.4 -23,-68.5 -26.2,-77.8 -4.5,-12.6 -4.5,-12.8 -3.3,-12.4 1.1,0.5 62.8,54.8 73.9,65.1 4.6,4.3 8,6.8 9.5,6.8 1.3,0 7.8,-1.8 14.6,-4.1 10.2,-3.4 12.2,-4.4 11.7,-5.8 -0.4,-0.9 -4.9,-14 -10,-29.1 -25.5,-75.4 -34.5,-102.4 -34.5,-103.6 0,-2 -1.2,-1.8 -14.1,2.8 z m -126.9,40 c -2.5,0.5 -24.1,4.8 -48,9.5 -23.9,4.7 -43.6,8.7 -43.8,8.8 -0.2,0.2 5.1,27.4 11.7,60.6 6.6,33.2 12.8,64.3 13.7,69.1 0.9,4.7 2,9.2 2.4,9.8 0.5,0.9 2.1,0.9 6.1,0.1 7.4,-1.4 89.9,-18 92.6,-18.6 1.9,-0.4 2.1,-0.9 1.3,-3.3 -0.5,-1.5 -1.6,-7.1 -2.6,-12.4 -1,-5.4 -2,-10.2 -2.4,-10.7 -0.5,-0.9 -30.7,4.6 -58.7,10.6 -4.5,0.9 -8.5,1.5 -8.7,1.2 -0.8,-0.8 -6.5,-30.3 -6,-31.1 0.3,-0.5 1.5,-0.8 2.7,-0.8 2.2,0 48.9,-9.1 49.6,-9.6 0.3,-0.3 -4.7,-25.5 -5.2,-26 -0.1,-0.1 -11.2,2 -24.7,4.8 -13.5,2.8 -25.4,5.1 -26.4,5.2 -1.6,0.1 -2.3,-1.7 -4.7,-13.8 -1.6,-7.7 -2.7,-14.1 -2.5,-14.3 0.3,-0.3 52.5,-10.9 62.9,-12.7 l 3.9,-0.7 -0.7,-5.2 c -0.4,-2.9 -1.4,-8.4 -2.2,-12.2 -0.8,-3.9 -1.5,-7.6 -1.6,-8.3 0,-1.4 -2.2,-1.4 -8.7,0 z m -494.8,28.5 c -22.6,41.1 -49.9,90.8 -55.1,100.4 l -5.1,9.6 11.2,2.1 c 6.2,1.2 12.7,2.4 14.4,2.8 l 3.2,0.6 14.4,-27.4 3.2,0.7 c 1.7,0.3 11.9,2.3 22.6,4.4 l 19.4,3.7 0.7,3.5 c 0.4,1.9 1.3,8.8 1.9,15.3 0.6,6.6 1.2,12.1 1.3,12.3 0.2,0.2 22,4.2 32,5.8 1.9,0.3 2.7,0 2.7,-1 0,-0.9 -1.6,-15.6 -3.5,-32.8 -2,-17.1 -4,-35.5 -4.6,-40.7 -0.5,-5.2 -1.6,-14.9 -2.4,-21.5 -0.8,-6.6 -2.4,-20.5 -3.5,-30.9 -1.2,-10.3 -2.6,-19.6 -3.2,-20.5 -0.7,-1.2 -5.6,-2.6 -17.7,-4.9 -9.1,-1.8 -17.4,-3.2 -18.3,-3.2 -1.1,0 -5.4,6.9 -13.6,21.7 z m 21.2,22.5 c 0.3,2.4 1.2,11.3 2.1,19.8 0.9,8.5 1.9,18.1 2.4,21.2 0.6,5 0.5,5.8 -0.8,5.8 -1.7,0 -21.7,-3.7 -26.4,-4.8 l -2.7,-0.7 2,-3.5 c 5.3,-9.3 19.1,-36.1 20.1,-38.9 1.5,-4.3 2.6,-3.9 3.3,1.1 z m 98.2,-23.1 c -0.6,3.7 -6.6,108 -7.4,127.6 l -0.4,12.2 3.3,0.5 c 1.9,0.3 9.3,0.7 16.5,1 l 13.1,0.5 0.6,-10.7 c 0.4,-5.9 0.9,-17.7 1.2,-26.2 0.8,-21.2 0.5,-20.2 6.3,-19.6 2.6,0.3 8.1,0.8 12.3,1.1 l 7.5,0.6 1.2,4.2 c 3.3,10.9 17,52.8 17.4,53.3 0.5,0.4 36.8,2.2 36.8,1.8 0,-0.2 -10.8,-31.2 -17.4,-50 -2.5,-7.2 -4.6,-13.6 -4.6,-14.1 0,-0.5 1.7,-1.6 3.9,-2.3 4.6,-1.5 11.7,-7.3 15.4,-12.7 8.2,-11.9 9.1,-30.4 2.2,-44.3 -3.1,-6.1 -10.5,-13.4 -16.9,-16.5 -7.5,-3.7 -17.3,-5.1 -47.1,-6.9 -14.3,-0.9 -29.9,-1.9 -34.7,-2.2 l -8.7,-0.6 z m 59.7,26 c 8.7,1.2 12,2.9 15.3,7.9 3.7,5.5 4.1,10.5 1.4,16.7 -3.3,7.7 -6.4,10.2 -14.1,11.1 -5.3,0.6 -31.7,-0.2 -32.4,-1 -0.4,-0.5 1.5,-34.3 2,-35.6 0.5,-1.4 14.7,-1 27.8,0.9 z m 141.2,-27.4 c -3.3,0.2 -16.6,1.2 -29.5,2.3 -13,1.1 -24.2,2 -25.1,2 -1.3,0 -1.4,1.2 -0.7,8.2 0.4,4.6 1.2,15 1.8,23.3 0.5,8.2 1.7,24.2 2.6,35.5 0.8,11.3 2.3,32.8 3.4,47.8 1,15.1 2,27.5 2.2,27.7 0.3,0.4 32.1,-1.5 32.5,-1.9 0.2,-0.2 -0.4,-10.6 -1.2,-23.1 -0.8,-12.6 -1.5,-24.5 -1.5,-26.5 v -3.6 l 16.8,-1.2 c 27.8,-2.1 35.5,-4.6 45,-14.6 9.5,-10 13.6,-24.2 11.3,-39.2 -1.5,-10 -5.1,-17.4 -11.9,-24.1 -6.6,-6.7 -15.1,-10.9 -24.7,-12.3 -6.8,-0.9 -8.6,-1 -21,-0.3 z m 13.2,27.4 c 6.2,2.3 11.3,9.9 11.3,16.9 0,7.8 -5.2,15.9 -11.4,18 -3.8,1.2 -19.3,3 -26.2,3 h -5 l -1.2,-18.2 c -0.7,-10 -0.9,-18.5 -0.5,-18.9 1.8,-1.8 28.8,-2.4 33,-0.8 z"
     id="path4" />
  </g>
</svg>
